<svg width="26" height="26" viewBox="0 0 26 26" fill="none" xmlns="http://www.w3.org/2000/svg">
<path fill-rule="evenodd" clip-rule="evenodd" d="M5.41658 10.8334C6.6132 10.8334 7.58325 11.8034 7.58325 13C7.58325 14.1967 6.6132 15.1667 5.41658 15.1667C4.21997 15.1667 3.24992 14.1967 3.24992 13C3.24992 11.8034 4.21997 10.8334 5.41658 10.8334Z" fill="black"/>
<path fill-rule="evenodd" clip-rule="evenodd" d="M13.0001 10.8334C14.1967 10.8334 15.1667 11.8034 15.1667 13C15.1667 14.1967 14.1967 15.1667 13.0001 15.1667C11.8035 15.1667 10.8334 14.1967 10.8334 13C10.8334 11.8034 11.8035 10.8334 13.0001 10.8334Z" fill="black"/>
<path fill-rule="evenodd" clip-rule="evenodd" d="M20.5833 10.8334C21.78 10.8334 22.75 11.8034 22.75 13C22.75 14.1967 21.78 15.1667 20.5833 15.1667C19.3867 15.1667 18.4167 14.1967 18.4167 13C18.4167 11.8034 19.3867 10.8334 20.5833 10.8334Z" fill="black"/>
</svg>
